<?xml version="1.0" ?><svg height="256px" id="SVGRoot" version="1.1" viewBox="0 0 256 256" width="256px" xmlns="http://www.w3.org/2000/svg" xmlns:cc="http://creativecommons.org/ns#" xmlns:dc="http://purl.org/dc/elements/1.1/" xmlns:inkscape="http://www.inkscape.org/namespaces/inkscape" xmlns:rdf="http://www.w3.org/1999/02/22-rdf-syntax-ns#" xmlns:sodipodi="http://sodipodi.sourceforge.net/DTD/sodipodi-0.dtd" xmlns:svg="http://www.w3.org/2000/svg"><defs id="defs5435"/><g id="layer1"><g id="g12235" transform="translate(5.9674914,-3.4010254)"><circle cx="137.5" cy="122.5" d="M 223.02638,122.5 A 85.526382,85.526382 0 0 1 137.5,208.02638 85.526382,85.526382 0 0 1 51.973618,122.5 85.526382,85.526382 0 0 1 137.5,36.973618 85.526382,85.526382 0 0 1 223.02638,122.5 Z" id="path4206" r="85.526382" style="color:#000000;display:inline;overflow:visible;visibility:visible;opacity:1;fill:#f9ff0b;fill-opacity:1;stroke:#ffda09;stroke-width:20;stroke-linecap:round;stroke-linejoin:bevel;stroke-miterlimit:4;stroke-dasharray:none;stroke-dashoffset:0;stroke-opacity:1;marker:none;enable-background:accumulate"/><path d="M 103.47107,74.071667 A 40.208108,40.208108 0 0 0 64.064528,106.29123 c -13.9245,6.96866 -23.44751,21.34194 -23.44751,38.02909 0,1.12659 0.0574,2.23945 0.14262,3.34346 -12.29354,7.43646 -20.47776,20.928 -20.47776,36.40249 0,23.55548 18.96344,42.51892 42.51892,42.51892 l 115.540542,0 c 23.55548,0 42.51892,-18.96344 42.51892,-42.51892 0,-20.39369 -14.21858,-37.33545 -33.32081,-41.51877 -0.92406,-22.72618 -19.51275,-40.7461 -42.47378,-40.7461 l -3.4247,0 a 40.208108,40.208108 0 0 0 -38.1699,-27.729733 z" id="rect9844" style="color:#000000;display:inline;overflow:visible;visibility:visible;opacity:1;fill:#eafdff;fill-opacity:1;stroke:#bce7ff;stroke-width:18.48648643;stroke-linecap:round;stroke-linejoin:round;stroke-miterlimit:4;stroke-dasharray:none;stroke-dashoffset:0;stroke-opacity:1;marker:none;enable-background:accumulate"/></g></g></svg>